/* XPM */
static char *_569dbf27bdf4047d5583b58625d0c7fZOTpNcsQ6zJ4p0uS[] = {
/* columns rows colors chars-per-pixel */
"64 64 184 2 ",
"   c None",
".  c #3F340C",
"X  c #4C290A",
"o  c #433A00",
"O  c #5F311A",
"+  c #713500",
"@  c #7E3711",
"#  c #6B3F28",
"$  c #5E4404",
"%  c #74461B",
"&  c #757A0B",
"*  c #AF4C08",
"=  c #BC5713",
"-  c #986B01",
";  c #BE7F1B",
":  c #98663F",
">  c #A07B36",
",  c #CE4203",
"<  c #D84702",
"1  c #C17802",
"2  c #D0740B",
"3  c #C37A1A",
"4  c #E27708",
"5  c #D16B28",
"6  c #DA7B25",
"7  c #AB7B52",
"8  c #969D1A",
"9  c #96A01A",
"0  c #9DAC1B",
"q  c #B78B3D",
"w  c #D89907",
"e  c #D3910A",
"r  c #D89B1D",
"t  c #E38902",
"y  c #EC8E00",
"u  c #E0890A",
"i  c #E19203",
"p  c #F4980E",
"a  c #FC9C0A",
"s  c #EF9E12",
"d  c #F19F13",
"f  c #E4A30E",
"g  c #EDB30C",
"h  c #EBA112",
"j  c #E0A519",
"k  c #E3A61F",
"l  c #E3AA18",
"z  c #F9A216",
"x  c #FEA514",
"c  c #F7A21D",
"v  c #FEAB19",
"b  c #FDAB1E",
"n  c #F9B610",
"m  c #F3B815",
"M  c #C88220",
"N  c #CE863A",
"B  c #C5973B",
"V  c #C19A38",
"C  c #E38D2A",
"Z  c #E39D2F",
"A  c #F49F2C",
"S  c #DAA721",
"D  c #DEAB27",
"F  c #DFB02E",
"G  c #C9A636",
"H  c #CAA03A",
"J  c #C8A23E",
"K  c #E1AA26",
"L  c #F6A127",
"P  c #F8A725",
"I  c #F0B023",
"U  c #FFB128",
"Y  c #F7BC2F",
"T  c #FEA631",
"R  c #F7A832",
"E  c #F2AF38",
"W  c #F7AE39",
"Q  c #FAAF3B",
"!  c #E6BE3C",
"~  c #FBB233",
"^  c #FEB737",
"/  c #FFBC31",
"(  c #FCBA37",
")  c #F1B73A",
"_  c #FDB43B",
"`  c #FCB63C",
"'  c #FFB839",
"]  c #FEC12A",
"[  c #FBC432",
"{  c #CF9B4D",
"}  c #F7945D",
"|  c #C9A44C",
" . c #DBBD43",
".. c #DFB847",
"X. c #ECAF47",
"o. c #FBAF40",
"O. c #EFB741",
"+. c #EABE42",
"@. c #FDB544",
"#. c #F8BB40",
"$. c #FEB944",
"%. c #FCBF47",
"&. c #FFBA48",
"*. c #FBBF4A",
"=. c #FDB84E",
"-. c #FCBE4F",
";. c #FFA75B",
":. c #E4B654",
">. c #E1BA56",
",. c #F9B750",
"<. c #FBB650",
"1. c #F6BE57",
"2. c #F8BC53",
"3. c #FFBD54",
"4. c #FEBE57",
"5. c #FCB85C",
"6. c #FFBC5D",
"7. c #DFB476",
"8. c #EFBF62",
"9. c #EDC04A",
"0. c #FEC147",
"q. c #F4C049",
"w. c #FCC04D",
"e. c #FEC04C",
"r. c #FFC24C",
"t. c #FFC34F",
"y. c #FFC053",
"u. c #FEC355",
"i. c #FFC457",
"p. c #F6C953",
"a. c #FDCE54",
"s. c #FFC258",
"d. c #FFC259",
"f. c #FFC15A",
"g. c #FDC85B",
"h. c #FAC95F",
"j. c #FFD250",
"k. c #FAD257",
"l. c #FBD25C",
"z. c #F0C166",
"x. c #FFC361",
"c. c #FFC460",
"v. c #FFC562",
"b. c #FCC364",
"n. c #FDC366",
"m. c #FBC564",
"M. c #FBC465",
"N. c #F9C867",
"B. c #F6C86C",
"V. c #FDCB6D",
"C. c #F4D167",
"Z. c #FFD161",
"A. c #FED668",
"S. c #FDD86E",
"D. c #FFD96E",
"F. c #FADC6D",
"G. c #ECC270",
"H. c #F6CC76",
"J. c #FBC871",
"K. c #FACD71",
"L. c #FFD072",
"P. c #FCD372",
"I. c #FAD175",
"U. c #FBD977",
"Y. c #FFD974",
"T. c #F5D67F",
"R. c #FFD37C",
"E. c #FCDB79",
"W. c #FDE57E",
"Q. c #FFDE81",
"!. c #FADC84",
"~. c #FBDC84",
"^. c #FDDF85",
"/. c #F9D08C",
"(. c #FFDD89",
"). c #FEE083",
"_. c #FFE085",
"`. c #FFE18D",
"'. c #FEE28D",
"]. c #EFD9A0",
"[. c #FDDFA3",
"{. c #FFE6AF",
"}. c #FFECB3",
"|. c #FFF4C9",
/* pixels */
"                                                                                                                                ",
"                                                                                                                                ",
"                                                                                                                                ",
"                                                                                                                                ",
"                                                                                                                                ",
"                                                                                                                                ",
"                                            P.          h.h.h.h.h.h.]       /.i.                                                ",
"                                            a.Z.  h.h.h.h.] ] ] ] ] ] ] ] M.x w./ ] ]                                           ",
"                                          h.h.h.h.h.] ] ] Q Q ] ] ] ] ] 9 9 Z < d h ] ] _.}.                                    ",
"                                        h.h.] ] ] ] ] ] ] Q ] ] ] ] ] 9 9 9 < < < 6 Q Q Q 8.U.{.                                ",
"                                      h.h.] A.9 9 9 K ( ] Q Q ] Q Q ] 9 9 9 9 A R ;.Q Q Q 9 9 l.'.    9 9                       ",
"                                    h.h.] ] ] 9 Q Q Q & #.Q Q w.Q Q c # # ! 0.%.Q Q Q Q Q Q Q Q P.K.9 9 9                       ",
"                                h.h.9 9 9 9 9 9.m 9 Q 9 9 Q 9 9 Q Q # # # W =.9 Q ,.z.H.^.^.^.^.^.^.^.^.                        ",
"                              h.h.9 9 9 9 9 9 9 ..Q Q Q Q Q 9 9 Q Q # # N 9 9 Q Q E.^.^.^.H H H H H H ^.^.^.                    ",
"                            h.h.] ] ] 9 9 9 9 9 S Q Q # # 9 9 9 Q < < < < $ I.S.^.^.H H H H H H H H H H H ^.^.                  ",
"                          h.h.] ] ] ] ] G 9 9 9 9 8 # # 9 9 9 C N.< < < < Q.^.^.:.H H H H H H H H H H H H H ^.^.                ",
"                        h.h.] ] ] ] ] ] u.f.' Q Q 9 9 9 9 9 9 3.b.f.&.1.^.^.^.H H H H H H H H H H H H H H H H ^.|.              ",
"                      h.h.] Q Q ] ] b.c.^ z 9 9 Q Q 9 9 9 9 M.w.~ ` V.^.^.H H H H H H H H H H H H H H H H H H H B               ",
"                      h.] Q Q Q ] $.b x.L @ 9 9 9 Q Q ) g.-.+. .y k.^.^.H H H H H H H H H H H H H H H H H H H H H ].            ",
"                    h.h.] ] ] Q Q < < f.2 > - # 9 9 9 F s 9 9 9 !.^.^.H H H H H H H H H H H H H H H H H H H H H H H H           ",
"                  [.] S.] ] Q Q < < 6.9 < = M # 9 Q Q 9 9 9 0 W.^.^.H H H H H H H H H H H H H H H H H H H H H H H H H           ",
"                  9 9 ] ] ] Q 4 < < 9 Q < < } # Q Q 9 9 9 9 ^.^.^.H H H H H H H H H H H H H H H H H H H H H H H H H H H         ",
"                h.h.9 ] f i t o.T 9 9 Q Q Q < < Q 9 o * V ^.^.H H H H H H H H H H H H H H H H H H H H H H H H H H H H H H       ",
"                h.h.9 9 9 9 9 w.y.p < < < Q < < Q # . { ^.^.H H H H H H H H H H H H H H H H H H H H H H H H H H H H H H H       ",
"              ] h.] ] j e 9 9 c.a < < < < Q Q , Q # 7.^.^.H H H H H H H H H H H H H H H H H H H H H H H H H H H H H H H H H     ",
"              h.h.] ] D w 9 9 v u 9 9 9 9 < 5 Q Q C.^.^.H H H H H H H H H H H H H H H H H H H H H H H H H H H H H H H H H H     ",
"            ).h.h.] n l g 9 9 ,.@.9 9 q 1 5.: Q R.J ^.H H H H H H H H H H H H H H H H H H H H H H H H H H H H H H H H H H       ",
"            ).h.] ] # [ q.U X J.Q 3.# # X.7 # # !.^.H H H H H H H H H H H H H H H H H H H H H H H H H H H H H H H H H H H       ",
"            h.h.] # # # ; # # # Q # + + # + # # ^.^.H H H H H H H H H H H H H H H H H H H H H H H H H H H H H H H H H H         ",
"          ).h.h.# # # # Q Q Q Q Q # + + + # # ^.^.H H H H H H H H H H H H H H H H H H H H H H H H H H H H H H H | H H           ",
"          ).h.] p.2.# # Q Q # # # + + + # # ^.^.H H H H H H H H H H H H H H H H H H H H H H H H H H H H H H H H H H             ",
"          ).h.] *.P # # # Q # # + + + + # ^.^.H H H H H H H H H H H H H H H H H H H H H H H H H H H H H H H H H                 ",
"          h.h.] I # # # # # # + + + # # # ^.H H H H H H H H H H H H H H H H H H H H H H H H H H H H H H H                       ",
"        (.h.h.O.# # + + # O O + + + # # ^.^.H H H H H H H H H H H H H H H H H H H H H H H H H H H H H                           ",
"        ).] ] # + O + + X O O O + + # # ^.H H H H H H H H H H H H H H H H H H H H H H H H H H H H                               ",
"        ).] # # # O + + + X X O O # % ^.^.H H H H H H H H H H H H H H H H H H H H H H H H H H                                   ",
"        ).] # # # O O O + + + + X X # ^.H H H H H H H H H H H H H H H H H H H H H H H H                                         ",
"      ).).] # + # O O O + + + + + X ^.^.H H H H H H H H H H H H H H H H H H H H H H                                             ",
"      ).] _ # + # X X X X X + + + X ^.H H H H H H H H H H H H H H H H H H H H H                                                 ",
"      ).] E # + + + X X X + X X X ^.^.H H H H H H H H H H H H H H H H H H H                                                     ",
"      ).] X X O + + + + + + X X X ^.H H H H H H H H H H H H H H H H H H                                                         ",
"      ).] X X O O + + + + X X X ^.^.H H H H H H H H H H H H H H H H                                                             ",
"      ).] X X X O + + X X X X X ^.H H H H H H H H H H H H H H H                                                                 ",
"      ).X X + + O + + X X X X T.^.H H H H H H H H H H H H H                                                                     ",
"      ).X X X + O O + + + X X ^.^.H H H H H H H H H H                                                                           ",
"      ).X X X X X O O O O X X ^.H H H H H H H H H                                                                               ",
"      ).X X X X X X X O X X G.^.H H H H H H H                                                                                   ",
"        ).k X X X X X X X X ^.^.H H H H H                                                                                       ",
"        ).).Y X X X X X X ^.^.H H H                                                                                             ",
"          ).j.h.3 X X X X ^.>.                                                                                                  ",
"          ).).Y.^.B.r ^.^.^.                                                                                                    ",
"              F.^.'.^.^.                                                                                                        ",
"                ^.^.^.                                                                                                          ",
"                                                                                                                                ",
"                                                                                                                                ",
"                                                                                                                                ",
"                                                                                                                                ",
"                                                                                                                                ",
"                                                                                                                                ",
"                                                                                                                                ",
"                                                                                                                                ",
"                                                                                                                                ",
"                                                                                                                                ",
"                                                                                                                                "
};
